<?xml version="1.0" encoding="utf-8"?>
<!-- Generator: Adobe Illustrator 22.1.0, SVG Export Plug-In . SVG Version: 6.00 Build 0)  -->
<svg version="1.1" id="Capa_1" xmlns="http://www.w3.org/2000/svg" xmlns:xlink="http://www.w3.org/1999/xlink" x="0px" y="0px"
	 viewBox="0 0 512 512" style="enable-background:new 0 0 512 512;" xml:space="preserve">
<style type="text/css">
	.st0{fill:#2C3E50;}
</style>
<g>
	<g>
		<path class="st0" d="M512,256C512,114.6,397.4,0,256,0S0,114.6,0,256s114.6,256,256,256S512,397.4,512,256z M23.3,256
			C23.3,127.5,127.5,23.3,256,23.3S488.7,127.5,488.7,256S384.5,488.7,256,488.7S23.3,384.5,23.3,256z"/>
		<path class="st0" d="M265.8,403.8V256h48.8l7.7-49h-56.5v-24.6c0-12.8,4.2-25,22.5-25H325v-48.9h-52c-43.8,0-55.7,28.8-55.7,68.7
			V207h-30v49h30v147.8H265.8L265.8,403.8z"/>
	</g>
</g>
</svg>
