<?xml version="1.0" encoding="utf-8"?>
<!-- Generator: Adobe Illustrator 22.1.0, SVG Export Plug-In . SVG Version: 6.00 Build 0)  -->
<svg version="1.1" id="Layer_1" xmlns="http://www.w3.org/2000/svg" xmlns:xlink="http://www.w3.org/1999/xlink" x="0px" y="0px"
	 viewBox="0 0 512 512" style="enable-background:new 0 0 512 512;" xml:space="preserve">
<style type="text/css">
	.st0{fill:#2C3E50;}
	.st1{fill:none;}
	.st2{fill:none;stroke:#2C3E50;stroke-width:12;stroke-miterlimit:10;}
</style>
<path class="st0" d="M305,149H207c-31.9,0-57.9,26-57.9,57.9V305c0,31.9,26,57.9,57.9,57.9h98.2c31.9,0,57.9-26,57.9-57.9V207
	C363,174.9,337.1,149,305,149z M256,314.5c-32.3,0-58.5-26.3-58.5-58.5s26.3-58.5,58.5-58.5s58.5,26.3,58.5,58.5
	S288.3,314.5,256,314.5z M315.9,211.2c-9.5,0-17.3-7.8-17.3-17.3c0-9.5,7.8-17.3,17.3-17.3c9.5,0,17.3,7.8,17.3,17.3
	C333.3,203.5,325.5,211.2,315.9,211.2z"/>
<path class="st0" d="M256,210.1c-25.4,0-45.9,20.6-45.9,45.9c0,25.4,20.6,45.9,45.9,45.9c25.4,0,45.9-20.6,45.9-45.9
	C301.9,230.6,281.4,210.1,256,210.1z"/>
<path class="st0" d="M315.9,189.2c-2.6,0-4.8,2.1-4.8,4.8s2.1,4.8,4.8,4.8s4.8-2.1,4.8-4.8C320.7,191.4,318.6,189.2,315.9,189.2z"/>
<path class="st1" d="M420.8,420.7c21.5-21.5,38.3-46.4,50-74c12.2-28.7,18.3-59.2,18.3-90.7c0-31.6-6.2-62.1-18.3-90.7
	c-11.8-27.8-28.6-52.7-50-74c-21.5-21.5-46.4-38.3-74-50c-28.7-12.2-59.2-18.3-90.7-18.3s-62,6.2-90.7,18.3
	c-27.8,11.8-52.7,28.6-74,50c-21.5,21.5-38.3,46.4-50,74C29.2,193.9,23,224.5,23,256c0,31.5,6.2,62,18.3,90.7
	c11.8,27.8,28.6,52.7,50,74c21.5,21.5,46.4,38.3,74,50C194,482.8,224.6,489,256,489c31.5,0,62-6.2,90.7-18.3
	C374.6,458.8,399.5,442,420.8,420.7z"/>
<path class="st0" d="M434.6,77.4C386.9,29.7,323.5,3.5,256,3.5S125.2,29.7,77.5,77.4C29.8,125.1,3.5,188.5,3.5,256
	s26.3,130.9,73.9,178.6c47.7,47.7,111.1,73.9,178.6,73.9s130.9-26.3,178.6-73.9c47.7-47.7,73.9-111.1,73.9-178.6
	S482.3,125.1,434.6,77.4z M425.6,425.5c-21.9,21.9-47.6,39.2-76.2,51.4c-29.6,12.5-61,18.9-93.4,18.9c-32.4,0-63.8-6.3-93.4-18.9
	c-28.4-12-54.1-29.3-76.2-51.4c-21.9-21.9-39.2-47.6-51.4-76.2c-12.5-29.6-18.9-61-18.9-93.4c0-32.4,6.3-63.8,18.9-93.4
	c12-28.4,29.3-54.1,51.4-76.2c21.9-21.9,47.6-39.2,76.2-51.4c29.6-12.5,61-18.9,93.4-18.9c32.4,0,63.8,6.3,93.4,18.9
	c28.4,12,54.1,29.3,76.2,51.4c21.9,21.9,39.2,47.6,51.4,76.2c12.5,29.5,18.9,60.9,18.9,93.4c0,32.4-6.3,63.8-18.9,93.4
	C465,377.8,447.7,403.4,425.6,425.5z"/>
<circle class="st2" cx="256" cy="256" r="239.9"/>
</svg>
