<?xml version="1.0" encoding="utf-8"?>
<!-- Generator: Adobe Illustrator 22.1.0, SVG Export Plug-In . SVG Version: 6.00 Build 0)  -->
<svg version="1.1" id="Layer_1" xmlns="http://www.w3.org/2000/svg" xmlns:xlink="http://www.w3.org/1999/xlink" x="0px" y="0px"
	 viewBox="0 0 512 512" style="enable-background:new 0 0 512 512;" xml:space="preserve">
<style type="text/css">
	.st0{fill:#FFFFFF;}
</style>
<path class="st0" d="M306.4,146H205.6c-32.8,0-59.5,26.7-59.5,59.5v100.9c0,32.8,26.7,59.5,59.5,59.5h100.9
	c32.8,0,59.5-26.7,59.5-59.5V205.6C366,172.7,339.3,146,306.4,146z M256,316.1c-33.2,0-60.1-27-60.1-60.1s27-60.1,60.1-60.1
	s60.1,27,60.1,60.1S289.2,316.1,256,316.1z M317.6,210c-9.8,0-17.8-8-17.8-17.8s8-17.8,17.8-17.8s17.8,8,17.8,17.8
	S327.4,210,317.6,210z"/>
<path class="st0" d="M256,208.8c-26.1,0-47.2,21.2-47.2,47.2c0,26.1,21.2,47.2,47.2,47.2c26.1,0,47.2-21.2,47.2-47.2
	C303.2,229.9,282.1,208.8,256,208.8z"/>
<path class="st0" d="M317.6,187.4c-2.7,0-4.9,2.2-4.9,4.9c0,2.7,2.2,4.9,4.9,4.9c2.7,0,4.9-2.2,4.9-4.9
	C322.5,189.6,320.3,187.4,317.6,187.4z"/>
<g>
	<path class="st0" d="M256,13c32.8,0,64.6,6.4,94.6,19.1c28.9,12.2,54.9,29.8,77.2,52.1c22.3,22.3,39.8,48.3,52.1,77.2
		c12.7,29.9,19.1,61.8,19.1,94.6s-6.4,64.6-19.1,94.6c-12.2,28.9-29.8,54.9-52.1,77.2c-22.3,22.3-48.3,39.8-77.2,52.1
		C320.6,492.6,288.8,499,256,499s-64.6-6.4-94.6-19.1c-28.9-12.2-54.9-29.8-77.2-52.1c-22.3-22.3-39.8-48.3-52.1-77.2
		C19.4,320.6,13,288.8,13,256s6.4-64.6,19.1-94.6c12.2-28.9,29.8-54.9,52.1-77.2c22.3-22.3,48.3-39.8,77.2-52.1
		C191.4,19.4,223.2,13,256,13 M256,0C114.6,0,0,114.6,0,256s114.6,256,256,256s256-114.6,256-256S397.4,0,256,0L256,0z"/>
</g>
</svg>
