<?xml version="1.0" encoding="utf-8"?>
<!-- Generator: Adobe Illustrator 22.1.0, SVG Export Plug-In . SVG Version: 6.00 Build 0)  -->
<svg version="1.1"
	 id="svg8" inkscape:version="0.92.3 (2405546, 2018-03-11)" sodipodi:docname="kmg logo 2.svg" xmlns:cc="http://creativecommons.org/ns#" xmlns:dc="http://purl.org/dc/elements/1.1/" xmlns:inkscape="http://www.inkscape.org/namespaces/inkscape" xmlns:rdf="http://www.w3.org/1999/02/22-rdf-syntax-ns#" xmlns:sodipodi="http://sodipodi.sourceforge.net/DTD/sodipodi-0.dtd" xmlns:svg="http://www.w3.org/2000/svg"
	 xmlns="http://www.w3.org/2000/svg" xmlns:xlink="http://www.w3.org/1999/xlink" x="0px" y="0px" viewBox="0 0 595.3 253.9"
	 style="enable-background:new 0 0 595.3 253.9;" xml:space="preserve">
<style type="text/css">
	.st0{fill:#2C3E50;}
</style>
<sodipodi:namedview  bordercolor="#666666" borderopacity="1.0" id="base" inkscape:current-layer="layer1" inkscape:cx="693.79017" inkscape:cy="353.61643" inkscape:document-units="mm" inkscape:pageopacity="0.0" inkscape:pageshadow="2" inkscape:window-height="1027" inkscape:window-maximized="1" inkscape:window-width="1920" inkscape:window-x="-8" inkscape:window-y="-8" inkscape:zoom="0.49497475" pagecolor="#ffffff" showgrid="false">
	</sodipodi:namedview>
<g>
	<path id="path10_1_" inkscape:connector-curvature="0" class="st0" d="M142.9,155.1c0,0.4-0.1,0.7-0.3,0.8s-0.4,0.2-0.6,0.2h-27.8
		c-1.1,0-1.8-0.3-2.1-0.8c-0.1-0.1-5.3-6.4-15.9-19c-7.4-8.9-14-16-19.8-21.5c-2.7-2.7-6.1-5.8-10.2-9.5c-0.8-0.6-1.6-0.7-2.2-0.2
		c-1.5,1.1-2.7,2.1-3.7,3c-0.4,0.8-0.5,1.3-0.5,1.7c0,0.2,0,3.7,0.1,10.7S60,131.6,60,133c0,11.9,0.8,17.8,2.4,17.8H75
		c0.5,0,0.7,0.4,0.7,1v3.5c0,0.6-0.3,0.8-0.8,0.8H31.5c-1,0-1.5-0.2-1.5-0.7v-4c0-0.6,0.4-0.9,1.3-0.9H40c0.9,0,1.4-0.6,1.4-1.7
		c0-0.2,0-8.6-0.1-25.2s-0.1-25.3-0.1-26.3s0-6.9-0.1-17.7S41,63.2,41,62.8c0-11.2-1-16.7-2.9-16.7H27.7c-0.6,0-0.9-0.3-0.9-0.9
		v-4.1c0-0.5,0.3-0.7,0.9-0.7h43.7c0.5,0,0.7,0.2,0.7,0.7v3.5c0,0.7-0.2,1.1-0.7,1.1H61.2c-0.6,0-0.8,0.4-0.8,1.2
		c0,0.3-0.1,8.6-0.3,25c-0.2,16.3-0.3,24.7-0.3,25.2c0,1.5,0.3,2.2,0.9,1.9c9.8-8.6,19.9-17.4,30.4-26.3c3.5-2.7,8.4-7.6,14.7-14.7
		c4.8-5.4,7.2-8.9,7.2-10.7c0-1-0.7-1.5-2.1-1.5h-9.1c-0.5,0-0.7-0.3-0.7-0.9v-3.7c0-0.5,0.3-0.7,0.9-0.7h37.4
		c0.8,0,1.3,0.2,1.3,0.7V45c0,0.7-0.3,1.1-0.9,1.1H133c-1.7,0-3.2,0.7-4.4,2c-8,7.3-16.6,15.2-25.9,23.5C96,77,88.4,84,79.8,92.6
		c-0.9,1.1-1.1,1.9-0.7,2.2c3.1,2.4,7.2,6,12.3,10.8c9.2,8.7,17.9,18.1,26,28.1c5.1,6.3,8.8,10.1,11,11.5c3.3,3.5,6.2,5.2,8.4,5.2
		h5.2c0.6,0,0.8,0.3,0.8,0.9L142.9,155.1z M373.1,155.3c0,0.5-0.4,0.8-1.1,0.8h-40.8c-0.8,0-1.2-0.3-1.2-0.8v-3.8
		c0-0.6,0.3-0.9,0.8-0.9h7.7c1.4,0,2.1-0.7,2.1-2.1v-43.3c0-16.4-0.2-28.4-0.7-36c-0.1-1.6-0.4-2.4-0.8-2.4s-0.8,0.5-1.3,1.5
		c-2.9,5.9-13.9,29.2-32.8,70.1c-4.1,8.8-6.9,15.1-8.4,18.8c-0.4,1-1.3,1.5-2.6,1.5c-1.4,0-2.4-0.4-2.8-1.3
		c-14.2-27.1-22.7-43.7-25.5-49.9c-4.7-9.3-10.8-21.9-18.3-37.8c-0.4-0.9-0.8-1.4-1.3-1.4c-0.6,0-0.9,0.6-1,1.7
		c-0.8,12.2-1.2,28-1.2,47.3v18.2c0,10,1.4,15,4.2,15h8.6c0.6,0,0.8,0.2,0.8,0.8v4c0,0.5-0.2,0.8-0.5,0.8h-32.5c-0.7,0-1-0.2-1-0.7
		v-3.7c0-0.9,0.3-1.3,0.9-1.3h8.7c1.5,0,2.3-1.3,2.3-3.8c0-4.7,0.4-20.6,1.3-47.7c0.4-6.8,0.9-18.6,1.5-35.4
		c0.1-8.4-2.9-13.9-8.9-16.6c-1.5-0.7-4-1.1-7.5-1.4c-0.5-0.1-0.7-0.3-0.7-0.8V41c0-0.5,0.2-0.7,0.7-0.7H251c1,0,1.7,0.4,2.1,1.3
		c3.1,5.8,8.3,16,15.5,30.9c1.5,3.1,6.5,12.8,14.9,29.1c8.8,17.1,13.7,26.4,14.7,28c1,1.6,1.8,1.8,2.4,0.8
		c6.3-13.6,13-28.1,20.2-43.5c6.9-14.7,14-29.7,21.3-44.9c0.8-1.1,1.7-1.6,2.8-1.6h23.4c0.7,0,1.1,0.2,1.1,0.7v4.1
		c0,0.6-0.3,0.9-0.8,0.9h-6.4c-1.9,0-3,1.9-3.3,5.6c-0.3,3.8-0.5,17.4-0.5,40.8c0,18.1,0.2,31.1,0.5,38.9c0.6,12.7,2.4,19,5.4,19
		h7.9c0.6,0,0.9,0.3,0.9,0.9V155.3z M568.5,104.1c0,0.6-0.3,1-1,1h-11c-0.6,0-1,0.4-1,1.1c0-0.4-0.1,1.7-0.2,6.3
		c-0.1,4.6-0.2,8.7-0.2,12.4c0,8.6,0.2,14.5,0.5,17.6c0,0.9-0.4,1.4-1.3,1.5c-2.8,1.2-6.2,2.7-10.2,4.3c-13.9,5.1-26.2,7.7-37.1,7.7
		s-20.1-1.4-27.5-4.2c-9.8-3.7-17.6-9.4-23.3-17.1c-5.8-8-8.7-19.4-8.7-34.4c0-15.4,5-29,15-40.7c7.5-8.8,18.4-15.2,32.7-19
		c6.4-1.7,14.6-2.6,24.5-2.6c10.9,0,19.9,1.1,27,3.3c3.9,1.2,6.9,2.3,9,3.1c0.8,0.3,1.1,0.8,1,1.4c-0.6,2.8-1.2,6.2-2,10
		c-0.6,3.5-1.3,7.2-2.2,11.3c-0.1,0.5-0.4,0.7-0.9,0.7c-1.1,0-1.6-0.3-1.6-0.9c0-0.1-0.4-1.9-1.2-5.4c-0.7-2.9-2.2-5.2-4.4-7
		c-8.2-6.6-19.4-9.9-33.4-9.9c-12.4,0-23.4,5.2-32.8,15.7c-7.3,8.1-11,20.4-11,36.9c0,17.1,4.2,29.9,12.6,38.5
		c9.2,9.3,21.5,14,36.9,14c9,0,15.5-2.7,19.5-8.3c0.5-0.6,0.8-1.5,0.8-2.7v-11.9c0-5.4-0.1-9.2-0.2-11.3c-0.3-6.9-1-10.3-1.7-10.3
		h-17.5c-0.6,0-1-0.5-1-1.5v-2.8c0-0.8,0.4-1.2,1.2-1.2c0.2,0,4,0,11.6,0.1c7.6,0,11.9,0.1,13,0.1s5.4,0,13.1-0.1
		c7.7-0.1,11.6-0.1,11.7-0.1c0.9,0,1.4,0.3,1.4,1L568.5,104.1z"/>
	<path class="st0" d="M293.9,159c-1.6,0-2.6-0.5-3.2-1.5c-14.4-27.4-22.7-43.7-25.5-49.9c-4.7-9.2-10.7-21.6-18.3-37.8
		c-0.4-0.8-0.7-1.1-0.9-1.1c-0.4,0-0.6,0.8-0.6,1.3c-0.8,12-1.2,27.5-1.2,47.3v18.2c0,12.1,2,14.6,3.8,14.6h8.6
		c1.1,0,1.2,0.7,1.2,1.2v4c0,0.9-0.5,1.2-0.9,1.2h-32.5c-1.3,0-1.4-0.8-1.4-1.1v-3.7c0-1.5,0.8-1.7,1.3-1.7h8.7c0.5,0,1.9,0,1.9-3.4
		c0-4.9,0.5-21.4,1.3-47.7c0.4-7,0.9-19.3,1.5-35.4c0.1-8.3-2.7-13.6-8.7-16.2c-1.5-0.7-3.9-1.1-7.4-1.3c-0.7-0.1-1.1-0.5-1.1-1.2
		v-3.7c0-0.7,0.4-1.1,1.1-1.1H251c1.1,0,1.9,0.5,2.5,1.5c3.3,6.1,8.6,16.7,15.5,30.9c1.5,3.1,6.6,12.9,14.9,29.1
		c8.9,17.2,13.7,26.4,14.7,28c0.7,1.1,1.1,1.2,1.2,1.2c0.2,0,0.4-0.3,0.4-0.4l7.5-16.1c4.1-8.8,8.3-17.9,12.7-27.4
		c7.1-15,14.2-30.1,21.3-44.9c0.9-1.3,1.9-1.9,3.2-1.9h23.4c1.4,0,1.5,0.8,1.5,1.1v4.1c0,0.8-0.4,1.3-1.2,1.3h-6.4
		c-1.6,0-2.6,1.8-2.9,5.3c-0.3,3.7-0.5,17.5-0.5,40.8c0,18,0.2,31.1,0.5,38.9c0.7,15.4,3.1,18.7,5,18.7h7.9c0.8,0,1.3,0.5,1.3,1.3
		v3.8c0,0.8-0.6,1.2-1.5,1.2h-40.8c-1.4,0-1.6-0.9-1.6-1.2v-3.8c0-1.2,0.8-1.3,1.2-1.3h7.7c1.2,0,1.7-0.5,1.7-1.7v-43.3
		c0-16.4-0.2-28.5-0.7-36c-0.1-1.8-0.4-2-0.4-2s-0.3,0.1-0.9,1.3c-3.1,6.1-14.4,30.3-32.8,70c-3.9,8.3-6.8,14.8-8.3,18.8
		C296.5,158.5,295.5,159,293.9,159z M246,67.9c0.6,0,1.2,0.5,1.6,1.6c7.7,16.2,13.7,28.6,18.3,37.8c2.8,6.2,11.1,22.5,25.5,49.9
		c0.4,0.7,1.2,1.1,2.4,1.1c1.2,0,1.9-0.4,2.3-1.2c1.6-4,4.5-10.5,8.4-18.9c18.4-39.7,29.8-63.9,32.8-70.1c0.6-1.2,1.1-1.7,1.6-1.7
		c0.9,0,1.1,1.3,1.2,2.8c0.5,7.5,0.7,19.6,0.7,36v43.3c0,1.6-0.9,2.5-2.5,2.5h-7.7c-0.3,0-0.4,0.1-0.4,0.5v3.8c0,0.2,0,0.4,0.8,0.4
		h41c0.7,0,0.7-0.3,0.7-0.4v-3.8c0-0.4-0.1-0.5-0.5-0.5h-7.9c-3.3,0-5.2-6.4-5.8-19.4c-0.3-7.8-0.5-20.9-0.5-38.9
		c0-23.4,0.2-37.1,0.5-40.9c0.3-4,1.6-6,3.7-6h6.4c0.1,0,0.4,0,0.4-0.5v-4.1c0-0.2-0.2-0.3-0.7-0.3h-23.4c-1,0-1.8,0.5-2.5,1.5
		c-7,14.7-14.2,29.8-21.3,44.8c-4.4,9.5-8.6,18.6-12.7,27.4l-7.5,16.1c-0.3,0.6-0.7,0.9-1.1,0.9l0,0c-0.6,0-1.2-0.5-1.9-1.6
		c-1-1.6-5.8-10.8-14.7-28c-8.4-16.2-13.4-26-14.9-29.1C261.4,58.7,256,48,252.7,42c-0.4-0.7-1-1.1-1.8-1.1h-29.3
		c-0.2,0-0.3,0.1-0.3,0.3v3.7c0,0.2,0.1,0.3,0.3,0.4c3.5,0.2,6.1,0.7,7.6,1.4c6.2,2.7,9.3,8.5,9.2,17c-0.5,16.2-1,28.4-1.5,35.4
		c-0.9,26.3-1.3,42.7-1.3,47.7c0,3.5-1.5,4.2-2.7,4.2h-8.7c-0.2,0-0.5,0-0.5,0.9v3.7c0,0.2,0.2,0.3,0.6,0.3h32.5l0,0
		c0,0,0.1-0.1,0.1-0.4v-4c0-0.2,0-0.4-0.4-0.4H248c-3.1,0-4.6-5-4.6-15.4v-18.2c0-19.8,0.4-35.3,1.2-47.4
		C244.7,68.3,245.4,67.9,246,67.9z M507,156.6c-10.9,0-20.2-1.4-27.7-4.2c-9.9-3.7-17.8-9.5-23.5-17.3c-5.8-8-8.8-19.7-8.8-34.6
		c0-15.4,5.1-29.2,15.1-41c7.6-8.8,18.6-15.3,32.9-19.1c6.5-1.8,14.8-2.7,24.6-2.7c10.9,0,20.1,1.1,27.1,3.4c3.9,1.2,6.9,2.2,9,3.2
		c1.2,0.5,1.4,1.3,1.2,1.8l-0.5,2.7c-0.4,2.2-0.9,4.6-1.4,7.3c-0.6,3.7-1.4,7.5-2.2,11.3c-0.2,0.7-0.6,1-1.3,1c-1.7,0-2-0.7-2-1.3
		c0-0.2-0.4-1.9-1-4.4l-0.2-0.9c-0.7-2.7-2.1-5-4.2-6.8c-8.1-6.5-19.3-9.8-33.2-9.8c-12.2,0-23.2,5.2-32.5,15.6
		c-7.2,8-10.9,20.3-10.9,36.6c0,16.9,4.2,29.8,12.5,38.2c9.1,9.2,21.4,13.9,36.6,13.9c8.9,0,15.2-2.6,19.2-8.1
		c0.5-0.5,0.7-1.4,0.7-2.5V127c0-5.1-0.1-9.1-0.2-11.3c-0.5-8.9-1.2-9.9-1.4-10h-17.4c-0.3,0-1.4-0.1-1.4-1.9V101
		c0-1,0.6-1.6,1.6-1.6c0.2,0,4,0,11.7,0.1c4.3,0,7.6,0,9.8,0c1.7,0,2.8,0,3.2,0c0.5,0,1.5,0,3.2,0c2.2,0,5.5,0,9.9,0
		c7.7-0.1,11.6-0.1,11.7-0.1c1.5,0,1.8,0.9,1.8,1.4v3.5c0,0.9-0.5,1.4-1.4,1.4h-11c-0.3,0-0.6,0.1-0.6,0.7l0,0
		c0,0.2-0.1,2.3-0.2,6.3c-0.1,4.6-0.2,8.7-0.2,12.4c0,8.5,0.2,14.5,0.5,17.6c0,1.1-0.6,1.8-1.6,2h-0.1c-2.8,1.2-6.1,2.6-10.1,4.3
		C530.4,154,517.9,156.6,507,156.6z M519.7,38.5c-9.7,0-17.9,0.9-24.4,2.6c-14.1,3.8-25,10.2-32.5,18.9
		c-9.9,11.6-14.9,25.2-14.9,40.4c0,14.8,2.9,26.3,8.6,34.1c5.6,7.6,13.4,13.3,23.1,17c7.4,2.8,16.6,4.2,27.4,4.2
		c10.8,0,23.2-2.6,37-7.7c4-1.7,7.3-3.1,10.1-4.3l0.3-0.1c0.6-0.1,0.9-0.4,0.9-1.1c-0.3-3.1-0.5-9.1-0.5-17.6
		c0-3.6,0.1-7.8,0.2-12.4c0.1-4,0.1-5.6,0.2-6.3h-0.1c0-0.9,0.5-1.5,1.4-1.5h11c0.4,0,0.6-0.2,0.6-0.6v-3.5c0-0.2,0-0.6-1-0.6
		c-0.1,0-4,0-11.7,0.1c-4.4,0-7.7,0-9.9,0c-1.7,0-2.8,0-3.2,0c-0.5,0-1.5,0-3.2,0c-2.2,0-5.5,0-9.8,0c-7.6-0.1-11.5-0.1-11.6-0.1
		c-0.6,0-0.8,0.2-0.8,0.8v2.8c0,0.8,0.2,1.1,0.6,1.1H535c0.6,0,1.6,0,2.1,10.7c0.2,2.3,0.2,6.2,0.2,11.3v11.9c0,1.3-0.3,2.3-0.9,3
		c-4.1,5.6-10.8,8.4-19.8,8.4c-15.4,0-27.9-4.7-37.1-14.1c-8.4-8.6-12.7-21.6-12.7-38.7c0-16.5,3.7-29,11.1-37.1
		c9.5-10.5,20.7-15.8,33.1-15.8c14.1,0,25.4,3.4,33.7,10c2.3,1.9,3.8,4.3,4.5,7.2l0.2,0.9c0.9,4,1,4.5,1,4.6c0,0.3,0.4,0.5,1.2,0.5
		c0.3,0,0.4-0.1,0.5-0.4c0.8-3.8,1.6-7.6,2.2-11.3c0.5-2.7,1-5.1,1.4-7.3l0.5-2.7c0-0.1,0.1-0.5-0.8-0.9c-2-0.9-5-2-8.9-3.1
		C539.6,39.6,530.5,38.5,519.7,38.5z M142.1,156.5h-27.8c-1.2,0-2-0.3-2.4-1c-0.1-0.2-0.7-0.8-3.1-3.7c-2.6-3.1-6.9-8.2-12.7-15.3
		c-7.4-8.8-14-16.1-19.7-21.5c-2.7-2.7-6-5.8-10.2-9.4c-1-0.8-1.5-0.3-1.7-0.2c-1.5,1.2-2.7,2.1-3.6,2.9c-0.3,0.7-0.5,1.2-0.5,1.5
		c0,0.2,0,3.7,0.1,10.7s0.1,11.1,0.1,12.5c0,16.2,1.5,17.4,2,17.4H75c0.4,0,1.1,0.2,1.1,1.5v3.5c0,0.8-0.5,1.2-1.2,1.2H31.5
		c-1.5,0-1.9-0.6-1.9-1.1v-4c0-0.5,0.2-1.3,1.7-1.3H40c0.5,0,1-0.1,1-1.3c0-0.2,0-8.6-0.1-25.2v-10c0-10.1-0.1-15.5-0.1-16.3
		c0-1,0-6.9-0.1-17.7s-0.1-16.4-0.1-16.8c0-14.2-1.6-16.3-2.5-16.3H27.7c-0.8,0-1.3-0.5-1.3-1.3v-4.1c0-0.3,0.1-1.1,1.3-1.1h43.7
		c0.7,0,1.1,0.4,1.1,1.1v3.5c0,1.3-0.7,1.5-1.1,1.5H61.2c-0.1,0-0.4,0-0.4,0.8c0,0.3-0.1,8-0.3,25c-0.2,16.4-0.3,24.8-0.3,25.2
		c0,1.3,0.2,1.5,0.2,1.5c8.9-7.8,19.5-17,30.3-26.3c3.4-2.7,8.4-7.6,14.6-14.6c5.8-6.5,7.1-9.3,7.1-10.4c0-0.3,0-1.1-1.7-1.1h-9.1
		c-0.3,0-1.1-0.1-1.1-1.3v-3.7c0-0.7,0.5-1.1,1.3-1.1h37.4c1.5,0,1.7,0.7,1.7,1.1V45c0,0.9-0.5,1.5-1.3,1.5h-6.8
		c-1.6,0-3,0.6-4.1,1.9c-8.5,7.8-17.2,15.7-25.9,23.5c-6.7,5.5-14.4,12.5-22.8,21c-0.8,1-0.8,1.4-0.8,1.5s0,0.1,0.1,0.1
		c3.2,2.5,7.3,6.1,12.4,10.9c9.1,8.6,17.9,18,26.1,28.2c5.1,6.2,8.7,10,10.9,11.4c3.3,3.4,6.1,5.1,8.2,5.1h5.2
		c0.8,0,1.2,0.5,1.2,1.3v3.7c0,0.6-0.1,1-0.4,1.2C142.6,156.4,142.4,156.5,142.1,156.5z M65.1,104.4c0.4,0,0.9,0.2,1.5,0.6
		c4.2,3.7,7.5,6.8,10.2,9.5c5.7,5.4,12.4,12.6,19.8,21.5c5.9,7.1,10.1,12.1,12.7,15.3c1.9,2.3,3,3.7,3.1,3.7l0.1,0.1
		c0.2,0.4,0.8,0.6,1.7,0.6H142c0.1,0,0.3,0,0.4-0.1c0,0,0.1-0.1,0.1-0.5v-3.7c0-0.5-0.2-0.5-0.4-0.5h-5.2c-2.4,0-5.3-1.8-8.7-5.3
		c-2.2-1.4-5.9-5.3-11-11.6c-8.2-10.1-16.9-19.6-26-28.1c-5-4.7-9.2-8.3-12.3-10.8c-0.2-0.2-0.3-0.4-0.4-0.7c-0.1-0.5,0.2-1.2,1-2.2
		c8.5-8.5,16.2-15.6,22.9-21c8.6-7.8,17.3-15.7,25.8-23.4c1.3-1.4,2.9-2.1,4.7-2.1h6.8c0.3,0,0.5-0.1,0.5-0.7v-3.8
		c0-0.3-0.6-0.3-0.9-0.3h-37.4c-0.5,0-0.5,0.2-0.5,0.3v3.7c0,0.5,0.2,0.5,0.3,0.5h9.1c2.1,0,2.5,1.2,2.5,1.9c0,1.9-2.4,5.4-7.3,10.9
		c-6.3,7.1-11.3,12-14.7,14.7C80.5,82.2,69.9,91.4,61,99.2l-0.1,0.1c-0.4,0.2-0.7,0.1-0.8,0c-0.4-0.3-0.6-1-0.6-2.2
		c0-0.5,0.1-8.5,0.3-25.2c0.2-17,0.3-24.7,0.3-24.9c0-1.4,0.9-1.6,1.2-1.6h10.2c0.1,0,0.3,0,0.3-0.7v-3.5c0-0.3-0.1-0.3-0.3-0.3
		H27.7c-0.5,0-0.5,0.2-0.5,0.3v4.1c0,0.3,0.1,0.5,0.5,0.5h10.5c1.5,0,3.3,1.9,3.3,17.1c0,0.4,0,6,0.1,16.8s0.1,16.7,0.1,17.7
		c0,0.7,0,6.2,0.1,16.3v10c0.1,16.6,0.1,25,0.1,25.2c0,1.9-1.2,2.1-1.8,2.1h-8.7c-0.9,0-0.9,0.3-0.9,0.5v4c0,0.1,0.3,0.3,1.1,0.3
		h43.3c0.3,0,0.4-0.1,0.4-0.4v-3.5c0-0.6-0.2-0.6-0.3-0.6H62.5c-1.4,0-2.8-2.2-2.8-18.2c0-1.4,0-5.5-0.1-12.5
		c-0.1-6.9-0.1-10.5-0.1-10.7c0-0.4,0.2-1,0.6-1.9l0.1-0.1c0.9-0.8,2.1-1.8,3.7-3C64.2,104.6,64.6,104.4,65.1,104.4z"/>
</g>
<g>
	<path id="path12_1_" inkscape:connector-curvature="0" class="st0" d="M180.3,27.7V169"/>
	<rect x="172.9" y="27.7" class="st0" width="14.9" height="141.3"/>
</g>
<g>
	<path id="path14_1_" inkscape:connector-curvature="0" class="st0" d="M412.1,27.7V169"/>
	<rect x="404.6" y="27.7" class="st0" width="14.9" height="141.3"/>
</g>
<g>
	<path class="st0" d="M161.7,190.4v8.2h-0.6c-0.1-1.1-0.4-2-0.7-2.8s-0.7-1.4-1.3-1.9c-0.5-0.5-1.1-0.8-1.9-1
		c-0.7-0.2-1.6-0.3-2.6-0.3h-4.9v26.7c0,2.2,0.2,3.5,0.7,4c0.6,0.7,1.6,1.1,3,1.1h1.2v1h-14.8v-1h1.2c1.5,0,2.5-0.4,3.2-1.3
		c0.4-0.5,0.6-1.8,0.6-3.8v-26.7h-4.2c-1.1,0-2,0.1-2.8,0.2c-0.8,0.2-1.5,0.4-2,0.9c-0.6,0.4-1,1-1.3,1.8s-0.6,1.8-0.8,3.1h-1v-8.2
		H161.7z"/>
	<path class="st0" d="M172,188.7V206c0.6-0.5,1.1-1.1,1.6-1.7s1.1-1.1,1.7-1.6c0.6-0.5,1.3-0.9,2-1.2s1.6-0.5,2.5-0.5
		c1.3,0,2.3,0.3,3.1,0.8s1.4,1.3,1.9,2.2c0.4,0.9,0.8,1.9,0.9,3.1c0.2,1.2,0.2,2.3,0.2,3.6v9.4c0,0.8,0,1.5,0,2s0.1,1,0.4,1.3
		c0.2,0.3,0.6,0.6,1,0.8s1.2,0.3,2.1,0.3v0.9h-11.6v-0.9h0.5c0.8,0,1.4-0.1,1.8-0.2c0.4-0.1,0.8-0.4,1-0.7s0.4-0.8,0.4-1.4
		c0.1-0.6,0.1-1.3,0.1-2.1v-9.4c0-0.7,0-1.5,0-2.3s-0.2-1.5-0.4-2.1s-0.6-1.1-1.1-1.6c-0.5-0.4-1.3-0.6-2.3-0.6
		c-0.4,0-0.9,0-1.3,0.1c-0.4,0.1-0.9,0.3-1.4,0.5c-0.5,0.3-1,0.6-1.5,1s-1.1,1-1.8,1.7v12.5c0,0.8,0,1.5,0.1,2
		c0,0.5,0.1,0.8,0.2,1.1c0.1,0.3,0.2,0.4,0.4,0.6c0.2,0.1,0.4,0.2,0.6,0.4c0.2,0.1,0.6,0.2,1,0.3s0.9,0.1,1.5,0.1v0.9h-11.7v-0.9
		c0.7,0,1.2,0,1.7-0.1s0.8-0.3,1.1-0.6s0.5-0.7,0.6-1.3s0.2-1.4,0.2-2.4v-21.4c0-2.7-0.1-4.3-0.2-5c-0.1-0.6-0.3-1-0.6-1.3
		s-0.6-0.3-1.1-0.3c-0.4,0-1,0.1-1.8,0.4l-0.4-0.9l7.1-2.9L172,188.7L172,188.7z"/>
	<path class="st0" d="M195.5,210.7c0,1.8,0.2,3.3,0.7,4.7s1.1,2.6,1.9,3.5c0.8,1,1.7,1.7,2.7,2.2s2.1,0.8,3.3,0.8
		c1.6,0,2.9-0.4,4-1.3c1.1-0.9,2.1-2.3,2.9-4.4l0.8,0.5c-0.2,1.2-0.6,2.3-1.1,3.4c-0.5,1.1-1.2,2.1-2.1,3c-0.8,0.9-1.8,1.6-2.9,2.1
		c-1.1,0.5-2.3,0.8-3.6,0.8c-1.4,0-2.7-0.3-4-0.9c-1.2-0.6-2.3-1.4-3.3-2.5c-0.9-1.1-1.7-2.3-2.2-3.8c-0.6-1.5-0.8-3.2-0.8-5.1
		c0-2,0.3-3.9,0.8-5.5c0.6-1.6,1.3-2.9,2.3-4s2.1-1.9,3.5-2.5c1.3-0.6,2.8-0.9,4.3-0.9c1.3,0,2.5,0.2,3.6,0.7s2.1,1.1,2.9,1.9
		c0.8,0.8,1.4,1.9,1.9,3c0.5,1.2,0.7,2.5,0.7,4h-16.3V210.7z M195.5,209.2h10.9c-0.1-1.5-0.2-2.6-0.5-3.2c-0.4-1-1.1-1.7-1.9-2.3
		c-0.9-0.5-1.7-0.8-2.7-0.8c-0.7,0-1.4,0.1-2,0.4c-0.7,0.3-1.2,0.7-1.8,1.2c-0.5,0.5-1,1.2-1.3,2
		C195.8,207.3,195.5,208.2,195.5,209.2z"/>
	<path class="st0" d="M248.8,213.7h-13.6l-2.4,5.5c-0.6,1.3-0.9,2.4-0.9,3c0,0.3,0,0.5,0.1,0.8c0.1,0.2,0.3,0.4,0.6,0.6
		s0.7,0.4,1.2,0.5s1.2,0.2,2.1,0.3v1h-11v-1c1.4-0.3,2.4-0.6,2.8-1c0.4-0.4,0.9-1,1.4-1.9s1-1.9,1.5-3.2l12.3-28.8h0.9l12.2,29.1
		c0.5,1.2,1,2.2,1.4,2.9s0.9,1.3,1.3,1.7s0.9,0.7,1.5,0.8c0.5,0.2,1.1,0.3,1.9,0.3v1h-13.8v-1c0.7,0,1.3-0.1,1.7-0.2
		c0.5-0.1,0.8-0.3,1.1-0.5s0.5-0.4,0.6-0.6c0.1-0.2,0.2-0.5,0.2-0.8c0-0.4-0.1-0.9-0.2-1.5c-0.2-0.6-0.4-1.3-0.8-2.1L248.8,213.7z
		 M248.1,211.8l-5.9-14.1l-6.1,14.1H248.1z"/>
	<path class="st0" d="M271.4,201.1v5.3c2-3.5,4-5.3,6.1-5.3c0.5,0,0.9,0.1,1.3,0.2s0.7,0.4,1,0.6c0.3,0.3,0.5,0.6,0.7,0.9
		c0.2,0.3,0.2,0.7,0.2,1.1c0,0.7-0.2,1.2-0.7,1.7c-0.4,0.5-1,0.7-1.6,0.7c-0.3,0-0.6-0.1-1-0.3s-0.7-0.4-1.1-0.6
		c-0.4-0.2-0.7-0.4-1-0.6c-0.3-0.2-0.5-0.3-0.7-0.3s-0.5,0.1-0.7,0.3c-0.3,0.2-0.6,0.5-0.9,0.8c-0.3,0.4-0.6,0.8-0.9,1.3
		s-0.6,1-0.9,1.6v11.3c0,0.7,0,1.3,0.1,1.9c0.1,0.6,0.3,1.1,0.6,1.4c0.3,0.4,0.7,0.7,1.3,0.9c0.6,0.2,1.3,0.3,2.2,0.3v0.9h-12.1
		v-0.9c0.8,0,1.4-0.1,1.9-0.2c0.5-0.1,0.9-0.3,1.1-0.6c0.3-0.3,0.5-0.8,0.6-1.3c0.1-0.6,0.2-1.3,0.2-2.3V211c0-2.8-0.1-4.4-0.2-4.9
		c-0.2-1-0.8-1.5-1.7-1.5c-0.5,0-1.1,0.1-1.8,0.4l-0.3-0.9l7.2-2.9h1.1V201.1z"/>
	<path class="st0" d="M290.7,194v7.8h5.5v1.8h-5.5v15.3c0,0.8,0.1,1.4,0.2,1.9s0.3,0.9,0.5,1.2s0.5,0.5,0.7,0.6
		c0.3,0.1,0.6,0.2,0.9,0.2c0.6,0,1.1-0.2,1.7-0.5c0.5-0.4,0.9-0.9,1.2-1.6h1c-0.3,0.8-0.7,1.6-1.1,2.2c-0.4,0.6-0.9,1.2-1.4,1.6
		c-0.5,0.4-1.1,0.7-1.7,1c-0.6,0.2-1.2,0.3-1.8,0.3c-0.4,0-0.8-0.1-1.2-0.2c-0.4-0.1-0.8-0.3-1.1-0.5c-0.4-0.2-0.7-0.5-1-0.8
		s-0.5-0.7-0.7-1.1c-0.4-0.8-0.5-2.1-0.5-3.8v-15.9h-3.7v-0.9c0.9-0.4,1.9-1,2.9-1.9s1.9-2,2.6-3.2c0.2-0.3,0.4-0.8,0.7-1.4
		c0.3-0.6,0.6-1.3,0.9-2.2L290.7,194L290.7,194z"/>
	<path class="st0" d="M324.2,201.1c1.7,0,3.2,0.3,4.6,1s2.6,1.5,3.6,2.6s1.8,2.4,2.3,3.8c0.6,1.5,0.8,3,0.8,4.6
		c0,1.7-0.3,3.3-0.9,4.9c-0.6,1.6-1.4,2.9-2.4,4.1c-1,1.2-2.3,2.2-3.7,2.9s-3,1.1-4.7,1.1s-3.2-0.3-4.6-1s-2.5-1.6-3.5-2.8
		c-1-1.1-1.7-2.5-2.3-3.9c-0.5-1.5-0.8-3-0.8-4.6s0.3-3.2,0.8-4.7c0.6-1.5,1.3-2.9,2.3-4.1c1-1.2,2.2-2.2,3.6-2.9
		S322.5,201.1,324.2,201.1z M323.4,202.8c-0.8,0-1.5,0.2-2.2,0.5s-1.3,0.8-1.9,1.5c-0.5,0.7-1,1.6-1.3,2.8c-0.3,1.1-0.5,2.5-0.5,4.1
		c0,1.7,0.2,3.3,0.5,4.8c0.4,1.5,0.9,2.9,1.5,4c0.6,1.2,1.4,2.1,2.3,2.8s1.9,1,3.1,1c0.8,0,1.6-0.2,2.3-0.5c0.7-0.3,1.3-0.8,1.8-1.5
		s0.9-1.7,1.2-2.8c0.3-1.2,0.4-2.6,0.4-4.3s-0.2-3.3-0.5-4.8s-0.8-2.8-1.4-3.9c-0.6-1.1-1.4-2-2.3-2.7
		C325.6,203.1,324.5,202.8,323.4,202.8z"/>
	<path class="st0" d="M348.3,203.7v15.5c0,2.2,0.2,3.6,0.7,4.2c0.7,0.8,1.5,1.1,2.6,1.1h2.1v0.9h-14.1v-0.9h1.1
		c0.7,0,1.3-0.2,1.9-0.5s1-0.8,1.2-1.4c0.2-0.6,0.3-1.7,0.3-3.4v-15.5h-4.6v-1.9h4.6v-1.5c0-2.3,0.4-4.3,1.1-6
		c0.4-0.8,0.9-1.5,1.5-2.2s1.3-1.2,2-1.7c0.8-0.5,1.6-0.9,2.5-1.1c0.9-0.3,1.8-0.4,2.8-0.4c0.7,0,1.4,0.1,2.1,0.3
		c0.8,0.2,1.5,0.5,2.1,0.9s1.2,0.8,1.6,1.4c0.4,0.5,0.6,1.1,0.6,1.7c0,0.3-0.1,0.5-0.2,0.8s-0.3,0.5-0.5,0.7s-0.4,0.4-0.7,0.5
		c-0.3,0.1-0.5,0.2-0.8,0.2c-0.2,0-0.4,0-0.6-0.1s-0.4-0.2-0.6-0.3c-0.2-0.2-0.5-0.4-0.7-0.7c-0.3-0.3-0.6-0.7-0.9-1.2
		s-0.6-0.9-0.9-1.2s-0.6-0.6-0.9-0.7c-0.3-0.2-0.6-0.3-0.9-0.4c-0.3-0.1-0.6-0.1-0.9-0.1c-0.8,0-1.5,0.2-2,0.6
		c-0.5,0.4-0.9,1.1-1.2,2c-0.2,0.9-0.4,3.2-0.4,6.8v1.7h6.1v1.9L348.3,203.7L348.3,203.7z"/>
	<path class="st0" d="M399.4,215.8l0.9,0.2l-3,9.5h-27.1v-1h1.3c1.5,0,2.5-0.5,3.2-1.4c0.4-0.5,0.5-1.8,0.5-3.8v-22.6
		c0-2.2-0.2-3.6-0.7-4.1c-0.7-0.8-1.7-1.1-3-1.1h-1.3v-1H386v1c-0.9,0-1.7,0-2.4,0.1c-0.6,0.1-1.1,0.2-1.6,0.4s-0.7,0.4-1,0.6
		c-0.2,0.2-0.4,0.5-0.6,0.8c-0.3,0.5-0.4,1.8-0.4,3.9v22c0,0.6,0,1.1,0.1,1.5c0,0.4,0.1,0.8,0.2,1.1s0.2,0.5,0.4,0.7
		c0.2,0.2,0.4,0.3,0.7,0.4c0.4,0.2,1.8,0.3,4,0.3h2.6c2.7,0,4.6-0.2,5.7-0.6c0.6-0.2,1.1-0.4,1.5-0.8c0.5-0.3,1-0.8,1.4-1.3
		c0.5-0.5,0.9-1.2,1.3-2C398.5,217.8,399,216.9,399.4,215.8z"/>
	<path class="st0" d="M416.5,222c-2.4,1.9-3.9,3-4.6,3.3c-0.9,0.4-1.9,0.6-3,0.6c-0.8,0-1.6-0.1-2.2-0.4c-0.7-0.3-1.3-0.7-1.8-1.2
		s-0.9-1.2-1.2-1.9c-0.3-0.7-0.4-1.6-0.4-2.5c0-0.7,0.1-1.3,0.3-1.9c0.2-0.6,0.5-1.1,0.8-1.6c0.4-0.5,0.8-1,1.4-1.5s1.2-0.9,2-1.4
		c1.8-1.1,4.7-2.3,8.7-3.8v-0.9c0-1.2-0.1-2.2-0.3-3s-0.5-1.4-0.9-1.9s-0.8-0.8-1.4-1s-1.2-0.3-1.9-0.3c-0.5,0-1,0.1-1.5,0.2
		c-0.4,0.2-0.8,0.4-1.1,0.6c-0.3,0.3-0.5,0.6-0.7,0.9c-0.2,0.4-0.2,0.7-0.2,1.1l0.1,1.5c0,0.8-0.2,1.4-0.6,1.8
		c-0.4,0.4-0.9,0.6-1.6,0.6c-0.6,0-1.2-0.2-1.6-0.7s-0.6-1.1-0.6-1.8s0.2-1.4,0.6-2.1c0.4-0.7,0.9-1.3,1.7-1.9
		c0.7-0.6,1.6-1,2.7-1.4c1.1-0.3,2.3-0.5,3.7-0.5c1.8,0,3.4,0.3,4.6,0.8c1.3,0.5,2.2,1.5,2.8,2.8c0.3,0.8,0.5,2.3,0.5,4.5v8
		c0,1.1,0,2,0,2.7s0.1,1.2,0.1,1.4c0.1,0.5,0.2,0.8,0.4,1c0.2,0.2,0.4,0.3,0.7,0.3c0.2,0,0.3,0,0.5-0.1s0.3-0.2,0.5-0.3
		c0.2-0.2,0.4-0.4,0.7-0.6c0.3-0.3,0.6-0.6,1.1-1v1.4c-1.9,2.6-3.8,3.9-5.5,3.9c-0.8,0-1.5-0.3-2-0.9
		C416.7,224.4,416.5,223.4,416.5,222z M416.5,220.4v-9c-1.3,0.5-2.4,1-3.2,1.3c-0.8,0.4-1.4,0.7-1.8,0.9c-1.4,0.8-2.3,1.6-2.9,2.4
		c-0.6,0.8-0.9,1.7-0.9,2.7c0,0.6,0.1,1.2,0.3,1.7c0.2,0.5,0.5,1,0.8,1.4s0.7,0.7,1.2,0.9c0.4,0.2,0.9,0.3,1.4,0.3
		C412.6,222.9,414.3,222.1,416.5,220.4z"/>
	<path class="st0" d="M425.2,201.8h9.9v1c-0.9,0.1-1.5,0.2-1.8,0.5s-0.4,0.6-0.4,1.1s0.1,1.2,0.4,1.9l5.1,13.6l5.1-11.1l-1.3-3.5
		c-0.2-0.4-0.4-0.8-0.5-1.1c-0.2-0.3-0.4-0.6-0.7-0.8c-0.3-0.2-0.6-0.4-1-0.5s-0.9-0.2-1.5-0.2v-1h11.3v1c-1.1,0.1-1.8,0.2-2.4,0.5
		c-0.5,0.3-0.8,0.8-0.8,1.5c0,0.4,0.1,0.7,0.2,1.1l5.4,13.6l5-13.1c0.3-0.9,0.5-1.7,0.5-2.2c0-0.3-0.2-0.6-0.5-0.9
		c-0.3-0.3-1-0.4-2-0.4v-1h7.5v1c-1.5,0.2-2.6,1.3-3.3,3l-7.9,20.4h-1.1l-5.9-15.1l-6.9,15.1h-1l-7.6-19.9c-0.2-0.6-0.5-1.2-0.7-1.6
		c-0.2-0.4-0.5-0.7-0.8-1s-0.6-0.4-1-0.6c-0.4-0.1-0.8-0.3-1.3-0.4L425.2,201.8L425.2,201.8z"/>
</g>
</svg>
